<?xml version="1.0" encoding="utf-8"?>
<!-- Generator: Adobe Illustrator 17.0.0, SVG Export Plug-In . SVG Version: 6.00 Build 0)  -->
<!DOCTYPE svg PUBLIC "-//W3C//DTD SVG 1.1//EN" "http://www.w3.org/Graphics/SVG/1.1/DTD/svg11.dtd">
<svg version="1.1" id="Layer_1" xmlns="http://www.w3.org/2000/svg" xmlns:xlink="http://www.w3.org/1999/xlink" x="0px" y="0px"
	 width="1000px" height="1000px" viewBox="0 0 1000 1000" enable-background="new 0 0 1000 1000" xml:space="preserve">
<g>
	<g>
		<path fill="none" d="M999.396,392.272c0,202.574,0,405.151,0,607.728c-333.975,0-667.953,0-1001.928,0
			c0-205.313,0-410.627,0-615.94c41.764,95.36,121.957,133.884,218.622,133.643c49.922-0.122,101.791-16.756,149.105-35.301
			c46.448-18.21,88.417-68.095,132.033-67.714c45.416,0.392,89.285,46.746,135.866,68.683
			C785.663,555.227,903.924,525.018,999.396,392.272z M683.929,551.126c-125.737,0-245.258,0-368,0
			c3.665,24.656,5.457,47.652,11.269,69.583c1.909,7.2,14.174,16.537,21.791,16.618c106.09,1.084,212.195,0.733,319.602,0.733
			C673.904,607.919,678.575,581.457,683.929,551.126z M339.062,664.77c5.092,16.62,9.551,27.885,11.941,39.57
			c7.346,35.957,25.989,49.998,65.07,47.582c61.042-3.769,122.539,0.428,183.819-0.449c11.372-0.162,28.518-5.277,32.808-13.449
			c11.578-22.096,17.664-47.07,26.746-73.255C550.773,664.77,447.404,664.77,339.062,664.77z M493.743,982.731
			c3.774,0.032,7.543,0.063,11.312,0.099c1.238-23.518,5.606-47.402,2.897-70.455c-3.314-28.162,4.995-43.013,30.096-58.113
			c28.671-17.249,51.464-44.279,76.808-67.058c-72.975-9.414-139.549-9.443-206.127-9.364c-6.328,0.009-12.655,0.699-18.983,1.068
			c-2.405,3.49-4.815,6.977-7.223,10.466c30.806,27.754,61.614,55.508,99.609,89.738
			C485.103,905.601,489.424,944.168,493.743,982.731z"/>
		<path fill="#EE1C24" d="M999.396,392.272c-95.473,132.748-213.733,162.954-366.3,91.099
			c-46.581-21.938-90.45-68.291-135.866-68.683c-43.619-0.381-85.586,49.502-132.033,67.714
			c-47.314,18.548-99.185,35.179-149.105,35.301C119.428,517.942,39.234,479.42-2.53,384.06c0-10.951,0-21.897,0-32.851
			c2.362-1.05,5.895-1.44,6.925-3.248c57.717-101.365,163.196-152.486,275.825-119.25c77.2,22.781,149.1,63.539,221.916,95.624
			c60.523-28.949,123.26-65.974,190.679-89.693c126.878-44.64,250.355,8.794,306.584,124.779
			C999.396,370.373,999.396,381.319,999.396,392.272z"/>
		<path fill="none" d="M999.396,359.422c-56.229-115.986-179.706-169.42-306.584-124.779
			c-67.419,23.719-130.156,60.744-190.679,89.693c-72.815-32.084-144.716-72.842-221.916-95.624
			C167.589,195.475,62.11,246.596,4.393,347.961c-1.03,1.808-4.562,2.198-6.925,3.248c0-114.699,0-229.397,0-344.502
			c333.975,0,667.953,0,1001.928,0C999.396,124.562,999.396,241.991,999.396,359.422z M684.132,216.448
			C659.144,96.576,556.877,58.798,480.543,65.171c-92.319,7.703-159.819,71.057-163.545,151.278
			C439.279,216.448,561.53,216.448,684.132,216.448z M458.228,46.432c-19.625-29.138-51.38-38.405-90.419-21.742
			c-31.101,13.268-45.244,46.973-37.19,82.274C372.882,86.917,416.003,66.462,458.228,46.432z M660.634,109.482
			c9.157-39.476-2.353-69.542-38.91-87.378c-34.742-16.952-65.027-7.752-88.058,16.934
			C575.761,62.396,617.457,85.529,660.634,109.482z"/>
		<path fill="#F6BB42" d="M683.929,551.126c-5.354,30.328-10.022,56.79-15.34,86.934c-107.406,0-213.514,0.352-319.602-0.733
			c-7.615-0.081-19.882-9.418-21.791-16.618c-5.811-21.931-7.603-44.929-11.269-69.583
			C438.671,551.126,558.189,551.126,683.929,551.126z"/>
		<path fill="#EE1C24" d="M339.062,664.77c108.344,0,211.711,0,320.384,0c-9.082,26.185-15.169,51.159-26.746,73.255
			c-4.287,8.172-21.435,13.286-32.808,13.449c-61.281,0.879-122.778-3.32-183.819,0.449c-39.081,2.414-57.724-11.625-65.07-47.582
			C348.613,692.655,344.154,681.39,339.062,664.77z"/>
		<path fill="#0ABF8B" d="M493.743,982.731c-4.319-38.563-8.643-77.13-11.614-103.624c-37.995-34.23-68.803-61.984-99.609-89.738
			c2.405-3.49,4.815-6.977,7.223-10.466c6.328-0.37,12.655-1.059,18.983-1.068c66.578-0.079,133.152-0.047,206.127,9.364
			c-25.344,22.779-48.136,49.809-76.808,67.058c-25.101,15.101-33.407,29.952-30.096,58.114c2.71,23.054-1.659,46.937-2.897,70.455
			C501.286,982.796,497.517,982.762,493.743,982.731z"/>
		<path fill="#F6BB42" d="M684.132,216.448c-122.604,0-244.852,0-367.134,0c3.726-80.221,71.226-143.575,163.545-151.278
			C556.877,58.798,659.146,96.576,684.132,216.448z"/>
		<path fill="#292626" d="M458.228,46.432c-42.226,20.031-85.344,40.486-127.606,60.532c-8.057-35.301,6.086-69.004,37.19-82.274
			C406.848,8.027,438.603,17.294,458.228,46.432z"/>
		<path fill="#272424" d="M660.634,109.482c-43.175-23.951-84.871-47.086-126.968-70.444c23.034-24.686,53.317-33.885,88.058-16.934
			C658.28,39.939,669.788,70.006,660.634,109.482z"/>
	</g>
</g>
</svg>
